<svg xmlns="http://www.w3.org/2000/svg" viewBox="0 0 64 64" role="img" aria-label="RC Tractoparts">
  <rect width="64" height="64" rx="10.2" fill="#FCCC24"/>
  <g fill="#16150F">
    <rect x="26.41" y="3.52" width="11.18" height="9.36" rx="2.46" transform="rotate(0 32 32)"/>
    <rect x="26.41" y="3.52" width="11.18" height="9.36" rx="2.46" transform="rotate(45 32 32)"/>
    <rect x="26.41" y="3.52" width="11.18" height="9.36" rx="2.46" transform="rotate(90 32 32)"/>
    <rect x="26.41" y="3.52" width="11.18" height="9.36" rx="2.46" transform="rotate(135 32 32)"/>
    <rect x="26.41" y="3.52" width="11.18" height="9.36" rx="2.46" transform="rotate(180 32 32)"/>
    <rect x="26.41" y="3.52" width="11.18" height="9.36" rx="2.46" transform="rotate(225 32 32)"/>
    <rect x="26.41" y="3.52" width="11.18" height="9.36" rx="2.46" transform="rotate(270 32 32)"/>
    <rect x="26.41" y="3.52" width="11.18" height="9.36" rx="2.46" transform="rotate(315 32 32)"/>
    <circle cx="32" cy="32" r="21.12"/>
  </g>
  <circle cx="32" cy="32" r="12.48" fill="#FCCC24"/>
</svg>
